<svg width="35" height="32" viewBox="0 0 35 32" fill="none" xmlns="http://www.w3.org/2000/svg">
<path fill-rule="evenodd" clip-rule="evenodd" d="M12.959 3.97751C11.6998 4.0729 9.80967 4.75696 8.86427 5.24653C5.29275 7.09603 4.75746 11.6303 4.75607 12.2204C4.75467 12.8106 4.96125 14.1881 4.96125 14.1881L4.01353 15.6613C4.01353 15.6613 3.17165 16.7413 2.96066 17.2326C2.74966 17.7239 3.27378 17.9218 3.79766 18.2181C4.53137 18.515 4.36134 18.8096 4.21453 19.3995C4.02484 19.5765 4.00377 19.7924 4.35844 20.0343C4.71312 20.2763 4.52695 20.3838 4.52695 20.3838C4.52695 20.3838 4.0537 20.796 4.79247 21.171C5.02711 21.5085 4.94267 22.0569 4.94174 22.4504C4.6058 23.8687 5.62718 24.5332 7.98035 24.1297C9.52416 24.0072 9.60723 24.013 10.0905 24.4409C10.7204 24.9983 11.6441 27.6363 11.6412 28.8698L11.6391 29.7448L16.7712 29.7569L22.0833 29.7694L21.4569 28.4666C20.7078 26.8889 20.3091 25.7157 19.9983 24.1577C19.7651 22.0557 19.9722 20.7041 22.1597 17.4746C23.436 15.5905 23.9314 14.1824 23.8043 11.8716C23.6842 9.68438 22.9602 7.89149 21.5563 6.45683C18.6265 3.5125 15.0577 3.81853 12.959 3.97751ZM20.0459 3.99386C19.7538 4.07481 20.507 4.37158 21.3017 4.96362C22.5704 5.90833 23.708 7.48339 24.303 9.11896C24.6601 10.1007 24.7693 10.8569 24.7714 12.366C24.775 14.6737 24.4213 15.8927 23.2006 17.7815C21.4773 19.8334 20.7795 21.2641 20.7826 23.0779C20.7857 24.8555 21.3176 25.9469 22.5423 28.4692L23.175 29.772L24.1218 29.7743L25.2308 29.7769L25.2339 28.4756C25.4462 27.4165 26.2913 24.9595 26.7119 24.567C27.1325 24.1746 27.1325 24.1746 29.021 24.179C31.5383 24.4801 32.0611 23.6944 32.0627 23.0059C32.0643 22.3174 31.6461 21.7262 32.2767 21.2359C32.9074 20.7456 32.4916 20.6462 32.3874 20.3509C32.2831 20.0556 33.1222 20.1559 32.7047 19.2697C32.2871 18.3835 32.602 18.3056 33.232 18.0906C33.8044 17.8952 33.967 17.8733 33.9678 17.5022C33.9687 17.131 33.6549 16.7146 33.1322 15.9264L32.0292 14.3504L31.8206 13.8581C32.8813 8.94254 29.9045 5.49255 25.9202 4.40117C24.6624 3.9064 22.1451 3.605 20.0459 3.99386Z" fill="#212121"/>
<path d="M9.33292 0.503037C9.40803 0.319063 9.66855 0.319063 9.74366 0.503037L10.0957 1.3653C10.1202 1.42537 10.1698 1.4717 10.2314 1.49207L11.1196 1.78579C11.3225 1.85289 11.3225 2.13991 11.1196 2.207L10.2314 2.50073C10.1698 2.5211 10.1202 2.56742 10.0957 2.62749L9.74366 3.48976C9.66855 3.67373 9.40803 3.67374 9.33292 3.48976L8.9809 2.62749C8.95637 2.56742 8.90678 2.5211 8.84518 2.50073L7.95694 2.207C7.75404 2.13991 7.75404 1.85289 7.95694 1.78579L8.84518 1.49207C8.90678 1.4717 8.95637 1.42537 8.9809 1.3653L9.33292 0.503037Z" fill="#212121"/>
<path d="M1.23575 9.61249C1.30994 9.42611 1.57375 9.42611 1.64794 9.61249L1.7914 9.9729C1.81543 10.0333 1.86471 10.0801 1.92624 10.1009L2.26432 10.2156C2.46508 10.2837 2.46508 10.5676 2.26432 10.6357L1.92624 10.7504C1.86471 10.7713 1.81543 10.8181 1.7914 10.8784L1.64794 11.2388C1.57375 11.4252 1.30994 11.4252 1.23575 11.2388L1.09229 10.8784C1.06826 10.8181 1.01897 10.7713 0.957443 10.7504L0.61937 10.6357C0.418604 10.5676 0.418604 10.2837 0.619369 10.2156L0.957443 10.1009C1.01897 10.0801 1.06826 10.0333 1.09229 9.97289L1.23575 9.61249Z" fill="#212121"/>
<path d="M3.44824 1.12492C3.5129 0.91696 3.80723 0.91696 3.87189 1.12492L4.61334 3.50975C4.6325 3.57141 4.67758 3.62165 4.7368 3.64737L6.85156 4.56567C7.02952 4.64294 7.02952 4.89533 6.85156 4.9726L4.7368 5.8909C4.67758 5.91662 4.6325 5.96686 4.61334 6.02851L3.91447 8.2764C3.84649 8.49502 3.52555 8.48149 3.4731 8.25862C3.25705 7.34055 2.90236 5.98767 2.6766 5.93141C2.42923 5.86975 1.14614 5.29234 0.450171 4.97528C0.275786 4.89583 0.278642 4.64814 0.454413 4.57181L2.58333 3.64737C2.64255 3.62165 2.68763 3.57141 2.70679 3.50975L3.44824 1.12492Z" fill="#212121"/>
<g filter="url(#filter0_d_482_1866)">
<path fill-rule="evenodd" clip-rule="evenodd" d="M12.959 3.97751C11.6998 4.0729 9.80967 4.75696 8.86427 5.24653C5.29275 7.09603 4.75746 11.6303 4.75607 12.2204C4.75467 12.8106 4.96125 14.1881 4.96125 14.1881L4.01353 15.6613C4.01353 15.6613 3.17165 16.7413 2.96066 17.2326C2.74966 17.7239 3.27378 17.9218 3.79766 18.2181C4.53137 18.515 4.36134 18.8096 4.21453 19.3995C4.02484 19.5765 4.00377 19.7924 4.35844 20.0343C4.71312 20.2763 4.52695 20.3838 4.52695 20.3838C4.52695 20.3838 4.0537 20.796 4.79247 21.171C5.02711 21.5085 4.94267 22.0569 4.94174 22.4504C4.6058 23.8687 5.62718 24.5332 7.98035 24.1297C9.52416 24.0072 9.60723 24.013 10.0905 24.4409C10.7204 24.9983 11.6441 27.6363 11.6412 28.8698L11.6391 29.7448L16.7712 29.7569L22.0833 29.7694L21.4569 28.4666C20.7078 26.8889 20.3091 25.7157 19.9983 24.1577C19.7651 22.0557 19.9722 20.7041 22.1597 17.4746C23.436 15.5905 23.9314 14.1824 23.8043 11.8716C23.6842 9.68438 22.9602 7.89149 21.5563 6.45683C18.6265 3.5125 15.0577 3.81853 12.959 3.97751ZM20.0459 3.99386C19.7538 4.07481 20.507 4.37158 21.3017 4.96362C22.5704 5.90833 23.708 7.48339 24.303 9.11896C24.6601 10.1007 24.7693 10.8569 24.7714 12.366C24.775 14.6737 24.4213 15.8927 23.2006 17.7815C21.4773 19.8334 20.7795 21.2641 20.7826 23.0779C20.7857 24.8555 21.3176 25.9469 22.5423 28.4692L23.175 29.772L24.1218 29.7743L25.2308 29.7769L25.2339 28.4756C25.4462 27.4165 26.2913 24.9595 26.7119 24.567C27.1325 24.1746 27.1325 24.1746 29.021 24.179C31.5383 24.4801 32.0611 23.6944 32.0627 23.0059C32.0643 22.3174 31.6461 21.7262 32.2767 21.2359C32.9074 20.7456 32.4916 20.6462 32.3874 20.3509C32.2831 20.0556 33.1222 20.1559 32.7047 19.2697C32.2871 18.3835 32.602 18.3056 33.232 18.0906C33.8044 17.8952 33.967 17.8733 33.9678 17.5022C33.9687 17.131 33.6549 16.7146 33.1322 15.9264L32.0292 14.3504L31.8206 13.8581C32.8813 8.94254 29.9045 5.49255 25.9202 4.40117C24.6624 3.9064 22.1451 3.605 20.0459 3.99386Z" fill="#212121"/>
</g>
<path d="M9.33292 0.503037C9.40803 0.319063 9.66855 0.319063 9.74366 0.503037L10.0957 1.3653C10.1202 1.42537 10.1698 1.4717 10.2314 1.49207L11.1196 1.78579C11.3225 1.85289 11.3225 2.13991 11.1196 2.207L10.2314 2.50073C10.1698 2.5211 10.1202 2.56742 10.0957 2.62749L9.74366 3.48976C9.66855 3.67373 9.40803 3.67374 9.33292 3.48976L8.9809 2.62749C8.95637 2.56742 8.90678 2.5211 8.84518 2.50073L7.95694 2.207C7.75404 2.13991 7.75404 1.85289 7.95694 1.78579L8.84518 1.49207C8.90678 1.4717 8.95637 1.42537 8.9809 1.3653L9.33292 0.503037Z" fill="#212121"/>
<path d="M1.23575 9.61249C1.30994 9.42611 1.57375 9.42611 1.64794 9.61249L1.7914 9.9729C1.81543 10.0333 1.86471 10.0801 1.92624 10.1009L2.26432 10.2156C2.46508 10.2837 2.46508 10.5676 2.26432 10.6357L1.92624 10.7504C1.86471 10.7713 1.81543 10.8181 1.7914 10.8784L1.64794 11.2388C1.57375 11.4252 1.30994 11.4252 1.23575 11.2388L1.09229 10.8784C1.06826 10.8181 1.01897 10.7713 0.957443 10.7504L0.61937 10.6357C0.418604 10.5676 0.418604 10.2837 0.619369 10.2156L0.957443 10.1009C1.01897 10.0801 1.06826 10.0333 1.09229 9.97289L1.23575 9.61249Z" fill="#212121"/>
<path d="M3.44824 1.12492C3.5129 0.91696 3.80723 0.91696 3.87189 1.12492L4.61334 3.50975C4.6325 3.57141 4.67758 3.62165 4.7368 3.64737L6.85156 4.56567C7.02952 4.64294 7.02952 4.89533 6.85156 4.9726L4.7368 5.8909C4.67758 5.91662 4.6325 5.96686 4.61334 6.02851L3.91447 8.2764C3.84649 8.49502 3.52555 8.48149 3.4731 8.25862C3.25705 7.34055 2.90236 5.98767 2.6766 5.93141C2.42923 5.86975 1.14614 5.29234 0.450171 4.97528C0.275786 4.89583 0.278642 4.64814 0.454413 4.57181L2.58333 3.64737C2.64255 3.62165 2.68763 3.57141 2.70679 3.50975L3.44824 1.12492Z" fill="#212121"/>
<defs>
<filter id="filter0_d_482_1866" x="2.02555" y="3.81641" width="32.8295" height="27.735" filterUnits="userSpaceOnUse" color-interpolation-filters="sRGB">
<feFlood flood-opacity="0" result="BackgroundImageFix"/>
<feColorMatrix in="SourceAlpha" type="matrix" values="0 0 0 0 0 0 0 0 0 0 0 0 0 0 0 0 0 0 127 0" result="hardAlpha"/>
<feOffset dy="0.887289"/>
<feGaussianBlur stdDeviation="0.443644"/>
<feComposite in2="hardAlpha" operator="out"/>
<feColorMatrix type="matrix" values="0 0 0 0 0 0 0 0 0 0 0 0 0 0 0 0 0 0 0.25 0"/>
<feBlend mode="normal" in2="BackgroundImageFix" result="effect1_dropShadow_482_1866"/>
<feBlend mode="normal" in="SourceGraphic" in2="effect1_dropShadow_482_1866" result="shape"/>
</filter>
</defs>
</svg>
