<svg width="16" height="16" viewBox="0 0 16 16" fill="none" xmlns="http://www.w3.org/2000/svg">
<g clip-path="url(#clip0_1398_162)">
<path d="M10.9998 1V4M13.9998 4.5V6.5M9.49984 2.5H12.4998M12.9998 5.5H14.9998M5.26672 10.7331L1.82359 9.46437C1.72865 9.42933 1.64673 9.36603 1.58888 9.283C1.53102 9.19997 1.5 9.1012 1.5 9C1.5 8.8988 1.53102 8.80003 1.58888 8.717C1.64673 8.63397 1.72865 8.57067 1.82359 8.53563L5.26672 7.26687L6.53547 3.82375C6.57051 3.72881 6.63381 3.64689 6.71684 3.58904C6.79987 3.53118 6.89864 3.50016 6.99984 3.50016C7.10104 3.50016 7.19981 3.53118 7.28284 3.58904C7.36587 3.64689 7.42917 3.72881 7.46422 3.82375L8.73297 7.26687L12.1761 8.53563C12.271 8.57067 12.3529 8.63397 12.4108 8.717C12.4687 8.80003 12.4997 8.8988 12.4997 9C12.4997 9.1012 12.4687 9.19997 12.4108 9.283C12.3529 9.36603 12.271 9.42933 12.1761 9.46437L8.73297 10.7331L7.46422 14.1763C7.42917 14.2712 7.36587 14.3531 7.28284 14.411C7.19981 14.4688 7.10104 14.4998 6.99984 14.4998C6.89864 14.4998 6.79987 14.4688 6.71684 14.411C6.63381 14.3531 6.57051 14.2712 6.53547 14.1763L5.26672 10.7331Z" stroke="#8B3DC9" stroke-width="1.5" stroke-linecap="round" stroke-linejoin="round"/>
</g>
<defs>
<clipPath id="clip0_1398_162">
<rect width="16" height="16" fill="white"/>
</clipPath>
</defs>
</svg>
